# xmcd
#
# Track frame offsets:
#	150
#	15653
#	34313
#	51953
#	69774
#	85373
#	97988
#	111685
#	132313
#	153405
#
# Disc length: 2246 seconds
#
# Revision: 0
# Processed by: cddbd v1.5.1PL0 Copyright (c) Steve Scherf et al.
# Submitted via: dBpowerAMP V4.0
#
DISCID=8308c40a
DTITLE=Mark Sanders - Guide Me Home
DYEAR=2004
DGENRE=Texas Country
TTITLE0=321
TTITLE1=Couldn't Stay
TTITLE2=Lone Star
TTITLE3=Lately
TTITLE4=Sanity
TTITLE5=Mexico
TTITLE6=I Remeber You
TTITLE7=Little Girl
TTITLE8=Waco
TTITLE9=Sober
EXTD=
EXTT0=
EXTT1=
EXTT2=
EXTT3=
EXTT4=
EXTT5=
EXTT6=
EXTT7=
EXTT8=
EXTT9=
PLAYORDER=
